HIERARCHY
ROOT Hips
{
 OFFSET 0.000000 0.000000 0.000000
 CHANNELS 6 Xposition Yposition Zposition Yrotation Xrotation Zrotation
 JOINT Chest
 {
  OFFSET 0.000000 9.857222 0.000240
  CHANNELS 3 Yrotation Xrotation Zrotation
  JOINT Chest2
  {
   OFFSET 0.000000 10.876940 -0.000436
   CHANNELS 3 Yrotation Xrotation Zrotation
   JOINT Chest3
   {
    OFFSET 0.000000 9.827798 0.000000
    CHANNELS 3 Yrotation Xrotation Zrotation
    JOINT Chest4
    {
     OFFSET 0.000000 9.827798 0.000000
     CHANNELS 3 Yrotation Xrotation Zrotation
     JOINT Neck
     {
      OFFSET 0.000000 13.831992 0.000000
      CHANNELS 3 Yrotation Xrotation Zrotation
      JOINT Head
      {
       OFFSET 0.000000 9.147643 -0.001036
       CHANNELS 3 Yrotation Xrotation Zrotation
       End Site
       {
        OFFSET 0.000000 17.515799 -0.000541
       }
      }
     }
     JOINT RightCollar
     {
      OFFSET -3.001579 7.717577 0.000000
      CHANNELS 3 Yrotation Xrotation Zrotation
      JOINT RightShoulder
      {
       OFFSET -14.002642 0.000000 0.000000
       CHANNELS 3 Yrotation Xrotation Zrotation
       JOINT RightElbow
       {
        OFFSET -30.053852 0.000000 0.000000
        CHANNELS 3 Yrotation Xrotation Zrotation
        JOINT RightWrist
        {
         OFFSET -24.564923 0.000000 -0.000000
         CHANNELS 3 Yrotation Xrotation Zrotation
         End Site
         {
          OFFSET -18.334355 0.000000 0.000000
         }
        }
       }
      }
     }
     JOINT LeftCollar
     {
      OFFSET 3.001579 7.717577 0.000000
      CHANNELS 3 Yrotation Xrotation Zrotation
      JOINT LeftShoulder
      {
       OFFSET 14.002642 0.000000 0.000000
       CHANNELS 3 Yrotation Xrotation Zrotation
       JOINT LeftElbow
       {
        OFFSET 30.053852 0.000000 0.000000
        CHANNELS 3 Yrotation Xrotation Zrotation
        JOINT LeftWrist
        {
         OFFSET 24.564923 0.000000 -0.000000
         CHANNELS 3 Yrotation Xrotation Zrotation
         End Site
         {
          OFFSET 18.334355 0.000000 0.000000
         }
        }
       }
      }
     }
    }
   }
  }
 }
 JOINT RightHip
 {
  OFFSET -8.003235 -0.001175 -0.000120
  CHANNELS 3 Yrotation Xrotation Zrotation
  JOINT RightKnee
  {
   OFFSET 0.000000 -41.759727 0.000113
   CHANNELS 3 Yrotation Xrotation Zrotation
   JOINT RightAnkle
   {
    OFFSET 0.000000 -40.728748 0.000159
    CHANNELS 3 Yrotation Xrotation Zrotation
    JOINT RightToe
    {
     OFFSET 0.000000 -6.515296 14.732841
     CHANNELS 3 Yrotation Xrotation Zrotation
     End Site
     {
      OFFSET 0.000000 -1.502839 6.412115
     }
    }
   }
  }
 }
 JOINT LeftHip
 {
  OFFSET 8.003235 -0.001175 -0.000120
  CHANNELS 3 Yrotation Xrotation Zrotation
  JOINT LeftKnee
  {
   OFFSET 0.000000 -41.759727 0.000113
   CHANNELS 3 Yrotation Xrotation Zrotation
   JOINT LeftAnkle
   {
    OFFSET 0.000000 -40.728748 0.000159
    CHANNELS 3 Yrotation Xrotation Zrotation
    JOINT LeftToe
    {
     OFFSET 0.000000 -6.515296 14.732841
     CHANNELS 3 Yrotation Xrotation Zrotation
     End Site
     {
      OFFSET 0.000000 -1.502839 6.412115
     }
    }
   }
  }
 }
}
MOTION
Frames: 17
Frame Time: 0.016667
0.000000 88.822259 0.000000 0.000000 -5.826342 0.000000 0.000000 11.116423 0.000000 0.000000 -5.290081 0.000000 0.000000 0.000000 0.000000 0.000000 0.000000 0.000000 0.000000 12.665069 0.000000 0.000000 0.575450 0.000000 0.000000 0.000000 0.000000 0.000000 0.000000 0.000000 2.337306 0.000000 0.000000 -2.337306 0.000000 0.000000 0.000000 0.000000 0.000000 0.000000 0.000000 0.000000 -2.337306 0.000000 0.000000 2.337306 0.000000 0.000000 0.000000 8.578828 0.000000 0.000000 1.905768 0.000000 0.000000 -4.658254 0.000000 0.000000 0.000000 0.000000 0.000000 8.578828 0.000000 0.000000 1.905768 0.000000 0.000000 -4.658254 0.000000 0.000000 0.000000 0.000000
8.032979 90.439618 13.040905 -31.385471 -8.528465 1.390273 2.462384 -0.935788 0.355401 1.144711 -0.373258 0.119026 1.144711 -0.373258 0.119026 0.858603 -0.279722 0.089969 -4.475989 26.707404 -0.391409 -7.892713 13.487795 0.281024 4.775532 31.775494 11.309112 36.784167 -7.767691 64.576631 27.850418 10.857571 11.533477 0.446996 5.346081 -5.727738 -27.378369 30.396881 -25.698503 -39.464852 19.132785 -65.884918 -42.260921 -11.369182 9.738847 6.241909 0.411075 6.503256 -14.619092 6.257776 -6.927002 4.412893 5.666228 -0.012183 0.283593 -4.128929 3.455094 -0.052130 0.093143 -0.018918 -23.196911 20.466622 -2.767862 31.139984 -1.756457 -6.985276 3.708786 -7.923460 -1.770960 0.198068 -0.004280 0.092652
8.029995 90.440182 13.059621 -31.370965 -8.538611 1.397679 2.464164 -0.920506 0.357317 1.143597 -0.367907 0.119051 1.143597 -0.367907 0.119051 0.857766 -0.275709 0.089976 -4.464670 26.727291 -0.397672 -7.870905 13.523877 0.266339 4.786313 31.776474 11.311413 36.788478 -7.673168 64.577050 28.108955 11.054637 11.637483 0.507360 5.343684 -5.702435 -27.375604 30.324419 -25.710888 -39.360691 19.192255 -65.946212 -42.332136 -11.246282 9.665626 6.252905 0.459140 6.504183 -14.623349 6.289920 -6.943701 4.403570 5.642271 -0.014046 0.268738 -4.123745 3.461034 -0.051989 0.089410 -0.018554 -23.127671 20.493229 -2.773257 31.044768 -1.784466 -6.977498 3.749030 -7.921183 -1.773760 0.200172 -0.005717 0.093300
8.031773 90.440817 13.076726 -31.348665 -8.533162 1.411604 2.457646 -0.918618 0.349673 1.143188 -0.363768 0.119727 1.143188 -0.363768 0.119727 0.857459 -0.272603 0.090476 -4.453162 26.744071 -0.401845 -7.849263 13.554317 0.255507 4.790024 31.778500 11.308332 36.790611 -7.563394 64.553087 28.504260 11.248085 11.785932 0.595925 5.327274 -5.683443 -27.396292 30.278009 -25.742426 -39.222328 19.233105 -65.965023 -42.433268 -11.036687 9.546241 6.256904 0.489430 6.502640 -14.618882 6.304655 -6.965007 4.388275 5.619440 -0.021870 0.261145 -4.120903 3.474657 -0.049252 0.087657 -0.017137 -23.111121 20.494601 -2.785850 31.010177 -1.807211 -6.976515 3.745994 -7.912159 -1.763651 0.184484 -0.008417 0.086291
8.032184 90.441250 13.094481 -31.331394 -8.534163 1.416733 2.458571 -0.907752 0.348478 1.142958 -0.359564 0.119575 1.142958 -0.359564 0.119575 0.857286 -0.269450 0.090354 -4.441350 26.755242 -0.403798 -7.827640 13.574476 0.248872 4.790316 31.762583 11.305917 36.789190 -7.428864 64.534978 29.045283 11.438815 11.966233 0.701394 5.303048 -5.703341 -27.419299 30.229469 -25.763752 -39.065055 19.296654 -65.892026 -42.603484 -10.843878 9.344136 6.265131 0.540544 6.500518 -14.607690 6.323250 -6.977704 4.382778 5.606723 -0.023552 0.247015 -4.123381 3.482971 -0.049076 0.085984 -0.016449 -23.050404 20.507330 -2.791255 30.955829 -1.830059 -6.957789 3.716809 -7.911842 -1.766243 0.185816 -0.006410 0.085922
8.032592 90.441753 13.109232 -31.315196 -8.541434 1.422766 2.471220 -0.888206 0.340636 1.147330 -0.351726 0.115313 1.147330 -0.351726 0.115313 0.860561 -0.263579 0.087145 -4.432722 26.757936 -0.396186 -7.813891 13.579602 0.260413 4.785965 31.724943 11.321086 36.844193 -7.241034 64.533283 29.766689 11.528500 12.096954 0.764576 5.274126 -5.742242 -27.483686 30.134344 -25.771584 -38.755853 19.389569 -65.602648 -42.888104 -10.676216 8.921457 6.265589 0.617677 6.496320 -14.578835 6.340455 -6.991174 4.370243 5.609936 -0.024186 0.231238 -4.132682 3.491020 -0.047901 0.084014 -0.015333 -22.998271 20.523320 -2.791219 30.899702 -1.845034 -6.946973 3.704467 -7.913955 -1.773696 0.189343 -0.003367 0.088297
8.032165 90.443691 13.127572 -31.313379 -8.574201 1.444552 2.517227 -0.824376 0.312827 1.153623 -0.338277 0.105693 1.153623 -0.338277 0.105693 0.865273 -0.253509 0.079908 -4.423844 26.744487 -0.371255 -7.803695 13.555802 0.303603 4.781866 31.666640 11.360823 36.677768 -7.122460 64.444211 30.771182 11.701616 12.492481 0.820216 5.226953 -5.822473 -27.641585 30.001856 -25.813917 -38.165038 19.425761 -65.127954 -43.340560 -10.299304 8.284920 6.218662 0.658741 6.474967 -14.527221 6.378313 -7.023358 4.351214 5.618360 -0.025669 0.223214 -4.136203 3.497235 -0.044570 0.072281 -0.012059 -22.966441 20.551443 -2.832322 30.839555 -1.857288 -6.921434 3.728992 -7.914261 -1.773781 0.162224 -0.007248 0.077276
8.031515 90.445477 13.135474 -31.276928 -8.574709 1.452698 2.538630 -0.772241 0.287789 1.158557 -0.319308 0.093473 1.158557 -0.319308 0.093473 0.868965 -0.239305 0.070710 -4.412118 26.714341 -0.330584 -7.792102 13.501862 0.375101 4.760973 31.599705 11.388402 36.351539 -7.070812 64.282360 32.072388 11.964949 13.142741 0.890693 5.179587 -5.938422 -27.856538 29.931921 -25.909326 -37.449042 19.433780 -64.688638 -44.110448 -9.562521 7.774646 6.082148 0.570213 6.436546 -14.489376 6.382956 -7.030498 4.318181 5.635476 -0.027385 0.203012 -4.150199 3.495803 -0.042902 0.068710 -0.007009 -22.958262 20.547286 -2.838648 30.775536 -1.859658 -6.907396 3.758777 -7.923590 -1.784492 0.164940 -0.002004 0.080029
8.030238 90.447325 13.133188 -31.212288 -8.557756 1.462490 2.559204 -0.717638 0.243546 1.165094 -0.297574 0.075047 1.165094 -0.297574 0.075047 0.873855 -0.223038 0.056853 -4.407017 26.673919 -0.268230 -7.797260 13.430432 0.487197 4.705937 31.509074 11.413721 36.087083 -6.974069 64.116595 33.614287 12.085674 13.843610 0.956941 5.142204 -6.024203 -28.034420 29.900995 -25.940655 -37.249011 19.686404 -64.546356 -45.302932 -8.905515 7.937893 5.929480 0.554326 6.360235 -14.458058 6.369099 -7.029410 4.281343 5.653158 -0.038048 0.192278 -4.165779 3.493832 -0.040393 0.066612 -0.000866 -23.032125 20.504051 -2.848172 30.776842 -1.837695 -6.892762 3.763613 -7.934206 -1.795631 0.162827 0.004104 0.080299
8.026535 90.448811 13.119987 -31.110619 -8.547442 1.467194 2.588648 -0.641388 0.186537 1.174412 -0.267262 0.051025 1.174412 -0.267262 0.051025 0.880829 -0.200349 0.038782 -4.417518 26.619483 -0.183244 -7.835504 13.335059 0.643763 4.664104 31.382990 11.471355 35.923197 -6.811112 63.926677 35.350862 12.027810 14.582480 1.034471 5.075724 -6.100452 -28.122702 29.813205 -25.854996 -36.996758 19.940591 -64.210294 -46.630581 -7.824224 7.901907 5.856557 0.383986 6.325773 -14.427462 6.363396 -7.014827 4.227739 5.674822 -0.054686 0.156076 -4.182934 3.488539 -0.039216 0.064437 0.004538 -23.160114 20.452657 -2.858059 30.806174 -1.800374 -6.879287 3.787967 -7.947471 -1.812669 0.166172 0.015217 0.082157
8.025395 90.450930 13.096414 -30.972660 -8.533918 1.472820 2.613138 -0.552658 0.123573 1.186089 -0.227194 0.028615 1.186089 -0.227194 0.028615 0.889576 -0.170341 0.021902 -4.447090 26.554152 -0.081143 -7.911846 13.221461 0.835618 4.651737 31.250072 11.519129 35.812282 -6.620029 63.704366 37.276416 11.982786 15.413109 1.135084 4.997882 -6.158216 -28.134146 29.674682 -25.710467 -36.433521 20.045543 -63.681324 -48.191022 -6.598219 7.743531 5.907301 0.343397 6.344435 -14.422180 6.350474 -7.003944 4.154980 5.691367 -0.070374 0.144527 -4.196086 3.480116 -0.037932 0.064789 0.009131 -23.354584 20.385032 -2.871930 30.902917 -1.761795 -6.875462 3.780992 -7.942675 -1.818756 0.157160 0.024890 0.077226
8.025571 90.454279 13.070854 -30.829079 -8.538828 1.476388 2.652432 -0.440454 0.065240 1.200639 -0.181191 0.008659 1.200639 -0.181191 0.008659 0.900481 -0.135877 0.006850 -4.492562 26.496738 0.033155 -8.019287 13.124254 1.052319 4.636856 31.138858 11.524785 35.878226 -6.350076 63.483544 39.371116 12.076257 16.254578 1.227191 4.939761 -6.158657 -28.125863 29.558885 -25.560035 -35.937237 20.102510 -63.068279 -50.008416 -5.678458 7.907229 6.012848 0.415851 6.356856 -14.429089 6.357964 -6.998853 4.078299 5.702784 -0.078200 0.131289 -4.205918 3.466062 -0.037197 0.063913 0.012247 -23.436061 20.339390 -2.864913 30.883732 -1.736476 -6.850985 3.765717 -7.933665 -1.827889 0.143401 0.036877 0.070313
8.026514 90.459937 13.041072 -30.660496 -8.539639 1.477642 2.682601 -0.342890 0.019205 1.211650 -0.140261 -0.006180 1.211650 -0.140261 -0.006180 0.908735 -0.105208 -0.004357 -4.548110 26.468930 0.133551 -8.141185 13.081816 1.244859 4.661840 31.088813 11.505386 36.012260 -6.041032 63.207100 41.637410 12.383613 17.227393 1.304115 4.888934 -6.180716 -28.103100 29.489326 -25.452142 -35.561917 20.082027 -62.264514 -52.040256 -5.116868 8.269593 6.162601 0.532024 6.342368 -14.476660 6.359151 -7.000742 4.005212 5.708458 -0.077814 0.126497 -4.205896 3.448770 -0.035940 0.057821 0.014134 -23.490533 20.278734 -2.848579 30.798972 -1.712283 -6.801051 3.803927 -7.914184 -1.853539 0.131939 0.045444 0.064785
8.034147 90.467036 13.010764 -30.456951 -8.506213 1.476801 2.691794 -0.282208 -0.013488 1.211396 -0.117388 -0.012640 1.211396 -0.117388 -0.012640 0.908544 -0.088067 -0.009247 -4.606611 26.480415 0.202853 -8.260665 13.110572 1.380398 4.726563 31.107687 11.453204 36.159474 -5.700600 62.836717 44.057659 12.818463 18.432283 1.352394 4.838355 -6.281001 -28.075940 29.490825 -25.426285 -35.413335 19.979217 -61.387629 -54.216060 -4.863686 8.821384 6.347403 0.573906 6.453966 -14.584131 6.322805 -7.007958 3.953308 5.711855 -0.068855 0.139719 -4.201282 3.430722 -0.032369 0.047255 0.015083 -23.511326 20.178711 -2.812561 30.677573 -1.694725 -6.725197 3.798199 -7.888262 -1.882333 0.111006 0.056830 0.056050
8.046448 90.473528 12.979118 -30.243923 -8.441460 1.462505 2.707335 -0.252578 -0.042622 1.210043 -0.112315 -0.017577 1.210043 -0.112315 -0.017577 0.907529 -0.084271 -0.012960 -4.661288 26.524943 0.260286 -8.369927 13.199786 1.491954 4.764427 31.172892 11.402422 36.437994 -5.274059 62.327700 46.603061 13.172657 19.869217 1.384107 4.790037 -6.404124 -28.055339 29.576751 -25.429157 -35.433243 19.723258 -60.516234 -56.532628 -4.925623 9.755613 6.666081 0.734433 6.695837 -14.734527 6.254394 -6.999368 3.950927 5.710779 -0.061953 0.121634 -4.182205 3.419799 -0.027411 0.028082 0.014479 -23.485329 20.054168 -2.741313 30.538704 -1.682611 -6.641469 3.760561 -7.839887 -1.906408 0.075778 0.053199 0.041283
8.058828 90.478528 12.948714 -30.013775 -8.365630 1.431820 2.712571 -0.249543 -0.069141 1.208342 -0.115342 -0.022619 1.208342 -0.115342 -0.022619 0.906252 -0.086551 -0.016736 -4.707161 26.588863 0.316458 -8.462682 13.324569 1.598087 4.779300 31.284000 11.353425 36.954347 -4.652794 61.625099 49.343063 13.302049 21.461243 1.358405 4.750522 -6.516651 -28.010617 29.704922 -25.425721 -35.375054 19.167756 -59.574891 -58.726296 -5.045808 10.935821 7.045247 1.178423 6.900993 -14.919997 6.179371 -6.973763 3.990047 5.706867 -0.061610 0.096437 -4.171518 3.415708 -0.021775 0.016396 0.013044 -23.404955 19.934985 -2.651355 30.387862 -1.694097 -6.540337 3.692046 -7.797747 -1.943780 0.061815 0.068317 0.034045
8.068247 90.481631 12.919676 -29.779917 -8.290504 1.396940 2.694036 -0.256851 -0.088282 1.200962 -0.118401 -0.025243 1.200962 -0.118401 -0.025243 0.900716 -0.088851 -0.018700 -4.739065 26.653736 0.364138 -8.528542 13.449900 1.685918 4.881017 31.417049 11.345897 37.615581 -3.900979 60.730002 52.302667 13.259039 23.209293 1.238356 4.702253 -6.570260 -27.943754 29.871123 -25.445293 -35.023031 18.198053 -58.432658 -60.618087 -4.395699 11.746897 7.514311 1.512860 7.074648 -15.112996 6.118338 -6.933789 4.043599 5.685350 -0.079000 0.056232 -4.158061 3.421288 -0.015385 0.008300 0.010553 -23.300354 19.831996 -2.546303 30.243447 -1.728740 -6.455178 3.607910 -7.733547 -1.975901 0.048585 0.078087 0.026406
